# xmcd
#
# Track frame offsets:
# 150
# 13090
# 31991
# 47215
# 65492
# 83203
# 96944
# 114248
# 134440
# 149507
#
# Disc length: 2084 seconds
#
#
# Revision: 0
# Processed by: cddbd v1.5PL3 Copyright (c) Steve Scherf et al.
# Submitted via: FreeRIP 2.53 
#
DISCID=8a08220a
DTITLE=Morris, Gary - Greatest Hits Vol 2
DYEAR=1900
DGENRE=
TTITLE0=Why Lady Why
TTITLE1=Second Hand Heart
TTITLE2=Makin Up For Lost Time
TTITLE3=Between Two Fires
TTITLE4=Plain Brown Wrapper
TTITLE5=Don't Look Back
TTITLE6=You're Welcome To Tonight
TTITLE7=Honeycomb
TTITLE8=Dreams Die Hard
TTITLE9=Another World
EXTD=
EXTT0=
EXTT1=
EXTT2=
EXTT3=
EXTT4=
EXTT5=
EXTT6=
EXTT7=
EXTT8=
EXTT9=
PLAYORDER=
